<svg width="170" height="38" viewBox="0 0 170 38" fill="none" xmlns="http://www.w3.org/2000/svg">
<path d="M43.7868 1.73352C43.7868 2.46639 43.7727 3.3261 43.7445 4.31266C43.7163 5.27103 43.6881 6.0039 43.6599 6.51127C43.5754 7.94883 43.5331 9.38638 43.5331 10.8239C43.5331 11.8951 43.5754 13.0085 43.6599 14.1641C44.5337 12.8957 45.478 11.9655 46.4927 11.3736C47.5075 10.7817 48.7336 10.4857 50.1712 10.4857C51.2141 10.4857 52.1866 10.9508 53.0886 11.881C53.9906 12.8111 54.5684 13.8964 54.8221 15.1366C54.9067 16.2359 54.949 17.5748 54.949 19.1533C54.949 20.168 55.0053 21.4928 55.1181 23.1277C55.1745 23.7478 55.3295 24.3257 55.5832 24.8612C55.865 25.3968 56.2597 25.6646 56.767 25.6646C57.0207 25.6646 57.218 25.6505 57.359 25.6223C57.5281 25.5941 57.6831 25.58 57.8241 25.58C58.2187 25.58 58.4865 25.6787 58.6274 25.876C58.7965 26.0733 58.8811 26.3552 58.8811 26.7216C58.8811 27.3981 58.5428 27.9055 57.8663 28.2437C57.1898 28.582 56.5697 28.7511 56.006 28.7511C53.9765 28.7511 52.5812 27.9055 51.8202 26.2142C51.3973 25.2559 51.1296 24.0156 51.0168 22.4935C50.9041 20.9432 50.8477 19.1392 50.8477 17.0815C50.8477 15.052 50.1571 14.0373 48.7759 14.0373C48.0149 14.0373 47.2397 14.446 46.4505 15.2634C45.6894 16.0527 45.0552 17.1097 44.5478 18.4345C44.0404 19.7311 43.7868 21.0841 43.7868 22.4935L43.829 26.8907C43.829 27.5108 43.5895 27.9759 43.1103 28.286C42.6311 28.5679 42.1801 28.7088 41.7573 28.7088C41.1372 28.7088 40.5734 28.5256 40.066 28.1592C39.5587 27.7645 39.305 27.3276 39.305 26.8484C39.5023 24.7344 39.6009 21.1969 39.6009 16.2359C39.6009 15.3339 39.5305 11.9937 39.3895 6.21531L39.2627 2.32546C39.2627 1.70533 39.5446 1.16977 40.1083 0.718775C40.6721 0.239592 41.3063 0 42.011 0C42.6311 0 43.0821 0.140937 43.364 0.42281C43.6458 0.704683 43.7868 1.14159 43.7868 1.73352Z" fill="#BF5AF2"/>
<path d="M61.0833 19.5761C61.0833 18.505 61.2806 17.4339 61.6753 16.3628C62.0699 15.2634 62.5914 14.2628 63.2397 13.3608C63.888 12.4588 64.9168 11.7259 66.3262 11.1622C67.7355 10.5703 68.9899 10.2743 70.0892 10.2743C71.2167 10.2743 72.3583 10.4293 73.5139 10.7394C74.6978 11.0494 75.5152 11.5286 75.9662 12.1769C77.0092 13.6427 77.5306 15.0802 77.5306 16.4896C77.5306 17.2507 77.3615 17.899 77.0233 18.4345C76.7132 18.9701 76.2622 19.5479 75.6703 20.168C75.1911 20.6754 74.43 21.0137 73.3871 21.1828C72.3724 21.3519 71.3576 21.4365 70.3429 21.4365C69.6946 21.4365 68.9053 21.3801 67.9751 21.2673C67.045 21.1264 66.143 20.9573 65.2691 20.76C65.3255 21.3237 65.4665 21.8734 65.692 22.4089C65.9175 22.9445 66.1852 23.3532 66.4953 23.6351C67.059 24.1706 67.6369 24.5089 68.2288 24.6498C68.8489 24.7908 69.6382 24.8612 70.5966 24.8612C71.6113 24.8612 72.5556 24.6921 73.4294 24.3539C74.1341 24.1002 74.7119 23.9733 75.1629 23.9733C75.6985 23.9733 76.1072 24.1425 76.3891 24.4807C76.6709 24.7908 76.8119 25.1995 76.8119 25.7069C76.8119 26.4115 76.4031 26.9894 75.5857 27.4404C74.7683 27.8914 73.824 28.2296 72.7529 28.4551C71.71 28.6524 70.8643 28.7511 70.216 28.7511C68.8912 28.7511 67.6087 28.5115 66.3685 28.0323C65.1282 27.5531 64.0994 26.8766 63.2819 26.0028C62.6054 25.2136 62.0699 24.2693 61.6753 23.17C61.2806 22.0425 61.0833 20.8445 61.0833 19.5761ZM70.3006 13.8682C69.6805 13.8682 69.0603 13.995 68.4402 14.2487C67.8201 14.4742 67.3127 14.7984 66.9181 15.2212C66.4107 15.7567 66.0584 16.1936 65.8611 16.5319C65.692 16.8419 65.5792 17.2788 65.5228 17.8426C66.2275 18.0681 67.6933 18.1808 69.9201 18.1808C71.1321 18.1808 72.0623 17.9976 72.7106 17.6312C73.3871 17.2647 73.7254 16.7856 73.7254 16.1936C73.7254 15.6017 73.3589 15.0661 72.626 14.5869C71.8932 14.1078 71.118 13.8682 70.3006 13.8682Z" fill="#BF5AF2"/>
<path d="M97.6379 28.7088C96.6795 28.7088 95.9467 28.5679 95.4393 28.286C94.9319 27.9759 94.3823 27.4122 93.7903 26.5948C93.0575 27.2431 91.9582 27.7645 90.4924 28.1592C89.0549 28.5538 87.8146 28.7511 86.7717 28.7511C85.0523 28.7511 83.657 28.286 82.5859 27.3558C81.5429 26.3974 81.0215 25.0022 81.0215 23.17C81.0215 22.3807 81.2329 21.662 81.6557 21.0137C82.1067 20.3372 82.6845 19.7452 83.3892 19.2379C84.1785 18.7023 85.1086 18.2795 86.1798 17.9694C87.2791 17.6594 88.2797 17.5043 89.1817 17.5043C90.7038 17.5043 92.0568 17.6453 93.2407 17.9271V17.8849C93.2407 16.3628 92.8602 15.3198 92.0991 14.7561C91.3662 14.1641 90.1824 13.8682 88.5475 13.8682C87.5046 13.8682 86.6026 14.3333 85.8415 15.2634C85.5596 15.6299 84.9677 15.8131 84.0657 15.8131C83.6147 15.8131 83.2765 15.6299 83.051 15.2634C82.8536 14.8688 82.755 14.4742 82.755 14.0796C82.755 13.2621 83.0932 12.5575 83.7697 11.9655C84.4744 11.3736 85.32 10.9367 86.3066 10.6548C87.2932 10.3448 88.2092 10.1897 89.0549 10.1897C89.8723 10.1897 90.8448 10.3588 91.9723 10.6971C93.0997 11.0353 94.0158 11.4863 94.7205 12.0501C95.5661 12.783 96.2144 13.6427 96.6654 14.6292C97.1446 15.5876 97.3842 16.6446 97.3842 17.8003C97.3842 18.1667 97.356 18.7164 97.2997 19.4493C97.2433 20.2949 97.2151 20.9855 97.2151 21.521C97.2151 21.7747 97.1869 22.0989 97.1305 22.4935C97.0742 23.0009 97.046 23.4237 97.046 23.7619C97.046 24.1284 97.1587 24.4807 97.3842 24.819C97.6097 25.1572 97.9198 25.4391 98.3144 25.6646C98.6808 25.8619 98.9204 26.0733 99.0332 26.2988C99.1459 26.5243 99.2023 26.778 99.2023 27.0598C99.2023 27.3417 99.0191 27.6941 98.6526 28.1169C98.3144 28.5115 97.9762 28.7088 97.6379 28.7088ZM89.1817 20.6331C88.0824 20.6331 87.1099 20.8445 86.2643 21.2673C85.4187 21.6902 84.9959 22.4371 84.9959 23.5082C84.9959 24.0438 85.1791 24.4948 85.5455 24.8612C85.9402 25.2277 86.363 25.4109 86.814 25.4109C88.026 25.4109 89.0408 25.284 89.8582 25.0304C90.6756 24.7767 91.6622 24.3116 92.8179 23.6351C92.9588 23.1841 93.0434 22.5499 93.0716 21.7324C93.0716 21.4224 93.0857 21.1828 93.1138 21.0137C91.5917 20.76 90.281 20.6331 89.1817 20.6331Z" fill="#BF5AF2"/>
<path d="M107.117 21.9861C107.117 23.0572 107.272 23.8888 107.582 24.4807C107.92 25.0445 108.343 25.3263 108.85 25.3263C109.132 25.3263 109.4 25.3122 109.654 25.284C109.907 25.2277 110.161 25.1995 110.415 25.1995C110.697 25.1995 110.936 25.3404 111.133 25.6223C111.359 25.9042 111.472 26.2142 111.472 26.5525C111.472 27.229 111.148 27.7645 110.499 28.1592C109.879 28.5256 109.034 28.7088 107.962 28.7088C107.201 28.7088 106.426 28.4833 105.637 28.0323C104.876 27.5531 104.242 26.8203 103.734 25.8337C103.227 24.819 102.973 23.5646 102.973 22.0707C102.973 18.8573 103.03 16.1373 103.142 13.9105C103.283 11.2608 103.354 7.92064 103.354 3.88985C103.354 2.62142 103.424 1.73352 103.565 1.22615C103.734 0.831526 104.002 0.535558 104.369 0.338246C104.763 0.112749 105.172 0 105.595 0C106.017 0 106.384 0.0704683 106.694 0.211405C107.032 0.352341 107.258 0.57784 107.37 0.8879C107.483 1.22615 107.554 1.5644 107.582 1.90264C107.638 2.21271 107.666 2.6637 107.666 3.25564C107.666 4.41132 107.624 5.52472 107.54 6.59584C107.483 7.89245 107.455 8.83673 107.455 9.42867C107.23 14.3896 107.117 18.5755 107.117 21.9861Z" fill="#BF5AF2"/>
<path d="M114.44 13.9105C114.045 13.8541 113.721 13.685 113.468 13.4031C113.242 13.1212 113.129 12.783 113.129 12.3883C113.129 12.191 113.172 11.9796 113.256 11.7541C113.369 11.5286 113.524 11.3313 113.721 11.1622C114.088 10.8521 114.581 10.5562 115.201 10.2743C115.849 10.0206 116.314 9.71054 116.596 9.3441C116.878 8.97767 117.019 8.28708 117.019 7.27233C117.019 6.84952 116.991 6.48309 116.935 6.17303C116.906 5.86297 116.892 5.62337 116.892 5.45425C116.892 4.83413 117.118 4.36904 117.569 4.05897C118.02 3.74891 118.541 3.59388 119.133 3.59388C119.866 3.59388 120.359 3.7771 120.613 4.14354C120.895 4.50997 121.036 5.18647 121.036 6.17303C121.036 7.1314 120.994 7.96292 120.909 8.66761C120.824 9.3441 120.641 9.95013 120.359 10.4857C120.754 10.4857 121.402 10.4575 122.304 10.4011C123.544 10.3448 124.404 10.3166 124.883 10.3166C125.363 10.3166 125.785 10.4434 126.152 10.6971C126.518 10.9226 126.701 11.2467 126.701 11.6696C126.701 12.2615 126.575 12.6984 126.321 12.9803C126.067 13.2621 125.701 13.4454 125.222 13.5299C124.066 13.84 122.431 14.0232 120.317 14.0796C120.261 15.1789 120.232 16.3768 120.232 17.6735C120.232 19.8439 120.359 21.5069 120.613 22.6626C120.782 23.5646 121.064 24.227 121.459 24.6498C121.881 25.0445 122.502 25.2418 123.319 25.2418C123.742 25.2418 124.08 25.1854 124.334 25.0726C124.616 24.9599 124.771 24.8894 124.799 24.8612C125.137 24.6639 125.447 24.5653 125.729 24.5653C126.124 24.5653 126.406 24.6921 126.575 24.9458C126.772 25.1995 126.871 25.5377 126.871 25.9605C126.871 26.7498 126.448 27.4122 125.602 27.9477C124.757 28.4551 123.671 28.7088 122.347 28.7088C120.853 28.7088 119.584 28.2719 118.541 27.3981C117.526 26.4961 116.92 25.3122 116.723 23.8465C116.441 22.5217 116.3 20.6613 116.3 18.2654C116.3 17.2225 116.357 15.8272 116.469 14.0796L114.44 13.9105Z" fill="#BF5AF2"/>
<path d="M135.368 1.73352C135.368 2.46639 135.354 3.3261 135.326 4.31266C135.298 5.27103 135.269 6.0039 135.241 6.51127C135.157 7.94883 135.114 9.38638 135.114 10.8239C135.114 11.8951 135.157 13.0085 135.241 14.1641C136.115 12.8957 137.059 11.9655 138.074 11.3736C139.089 10.7817 140.315 10.4857 141.753 10.4857C142.795 10.4857 143.768 10.9508 144.67 11.881C145.572 12.8111 146.15 13.8964 146.403 15.1366C146.488 16.2359 146.53 17.5748 146.53 19.1533C146.53 20.168 146.587 21.4928 146.699 23.1277C146.756 23.7478 146.911 24.3257 147.164 24.8612C147.446 25.3968 147.841 25.6646 148.348 25.6646C148.602 25.6646 148.799 25.6505 148.94 25.6223C149.109 25.5941 149.264 25.58 149.405 25.58C149.8 25.58 150.068 25.6787 150.209 25.876C150.378 26.0733 150.462 26.3552 150.462 26.7216C150.462 27.3981 150.124 27.9055 149.448 28.2437C148.771 28.582 148.151 28.7511 147.587 28.7511C145.558 28.7511 144.163 27.9055 143.401 26.2142C142.979 25.2559 142.711 24.0156 142.598 22.4935C142.485 20.9432 142.429 19.1392 142.429 17.0815C142.429 15.052 141.738 14.0373 140.357 14.0373C139.596 14.0373 138.821 14.446 138.032 15.2634C137.271 16.0527 136.637 17.1097 136.129 18.4345C135.622 19.7311 135.368 21.0841 135.368 22.4935L135.41 26.8907C135.41 27.5108 135.171 27.9759 134.692 28.286C134.212 28.5679 133.761 28.7088 133.339 28.7088C132.718 28.7088 132.155 28.5256 131.647 28.1592C131.14 27.7645 130.886 27.3276 130.886 26.8484C131.084 24.7344 131.182 21.1969 131.182 16.2359C131.182 15.3339 131.112 11.9937 130.971 6.21531L130.844 2.32546C130.844 1.70533 131.126 1.16977 131.69 0.718775C132.253 0.239592 132.888 0 133.592 0C134.212 0 134.663 0.140937 134.945 0.42281C135.227 0.704683 135.368 1.14159 135.368 1.73352Z" fill="#BF5AF2"/>
<path d="M157.612 37.165C156.061 37.165 154.934 36.8831 154.229 36.3194C153.553 35.7838 153.214 35.1919 153.214 34.5436C153.214 33.557 153.679 33.0638 154.61 33.0638C154.891 33.0638 155.258 33.1483 155.709 33.3174C156.16 33.5147 156.583 33.6134 156.977 33.6134C157.597 33.6134 158.105 33.2047 158.499 32.3873C158.894 31.5698 159.289 30.245 159.683 28.4128C158.81 27.3981 157.738 25.7914 156.47 23.5928C155.23 21.3942 154.159 19.2379 153.257 17.1238C152.355 14.9816 151.904 13.4595 151.904 12.5575C151.904 11.8528 152.143 11.3313 152.622 10.9931C153.13 10.6548 153.708 10.4857 154.356 10.4857C154.863 10.4857 155.258 10.5843 155.54 10.7817C155.822 10.9508 156.019 11.2749 156.132 11.7541C156.808 14.15 157.527 16.25 158.288 18.054C159.077 19.858 160.078 21.817 161.29 23.9311C161.769 22.8317 162.403 20.9573 163.193 18.3077C164.066 15.348 164.799 13.248 165.391 12.0078C165.645 11.5004 165.955 11.0917 166.321 10.7817C166.716 10.4716 167.153 10.3166 167.632 10.3166C168.111 10.3166 168.619 10.4998 169.154 10.8662C169.718 11.2045 170 11.6132 170 12.0924C170 12.3742 169.901 12.7125 169.704 13.1071C168.605 15.644 167.632 18.0399 166.787 20.2949C165.969 22.5217 165.18 24.974 164.419 27.6518C163.968 29.1457 163.489 30.5692 162.981 31.9222C162.502 33.2752 162.164 34.1067 161.966 34.4167C161.403 35.206 160.769 35.8543 160.064 36.3617C159.359 36.8972 158.542 37.165 157.612 37.165Z" fill="#BF5AF2"/>
<path d="M1.34365 28.5397C0.87684 28.5397 0.536197 28.4324 0.321718 28.218C0.107239 28.0035 0 27.6628 0 27.196V6.32219C0 5.85538 0.107239 5.52105 0.321718 5.31919C0.536197 5.10471 0.87684 4.99747 1.34365 4.99747H8.00511C10.7303 4.99747 12.7363 5.52736 14.0231 6.58713C15.31 7.6343 15.9534 9.08518 15.9534 10.9398C15.9534 12.05 15.6065 13.072 14.9126 14.0056C14.2187 14.9392 13.3482 15.6205 12.301 16.0494L12.3388 16.1819C13.222 16.3585 14.0042 16.7181 14.6855 17.2606C15.3794 17.8031 15.9156 18.4655 16.2941 19.2477C16.6852 20.0299 16.8807 20.85 16.8807 21.7079C16.8807 23.9158 16.1805 25.6064 14.7801 26.7797C13.3797 27.953 11.2791 28.5397 8.47822 28.5397H1.34365ZM7.49414 14.3651C8.47822 14.3651 9.24152 14.1317 9.78402 13.6649C10.3391 13.1855 10.6167 12.5799 10.6167 11.8482C10.6167 10.1828 9.59477 9.35013 7.55092 9.35013H5.18534V14.3651H7.49414ZM8.47822 24.1302C9.44969 24.1302 10.2067 23.8968 10.7492 23.43C11.2917 22.9506 11.5629 22.2756 11.5629 21.4051C11.5629 20.5472 11.2475 19.8974 10.6167 19.4559C9.9985 19.0143 9.10273 18.7935 7.92941 18.7935H5.18534V24.1302H8.47822Z" fill="#5E5CE6"/>
<path d="M21.2902 28.5397C20.8234 28.5397 20.4827 28.4324 20.2683 28.218C20.0538 28.0035 19.9465 27.6628 19.9465 27.196V6.32219C19.9465 5.85538 20.0538 5.52105 20.2683 5.31919C20.4827 5.10471 20.8234 4.99747 21.2902 4.99747H33.6101C33.9634 4.99747 34.2157 5.12994 34.3671 5.39488C34.5311 5.65983 34.6131 6.08879 34.6131 6.68176V7.70369C34.6131 8.29666 34.5311 8.72561 34.3671 8.99056C34.2157 9.2555 33.9634 9.38798 33.6101 9.38798H25.1319V14.2705H32.7017C33.055 14.2705 33.3073 14.403 33.4587 14.6679C33.6227 14.9329 33.7047 15.3618 33.7047 15.9548V16.9957C33.7047 17.5886 33.6227 18.0176 33.4587 18.2825C33.3073 18.5475 33.055 18.68 32.7017 18.68H25.1319V24.1302H33.629C33.9823 24.1302 34.2346 24.2627 34.386 24.5277C34.55 24.7926 34.632 25.2153 34.632 25.7956V26.8554C34.632 27.4484 34.55 27.8773 34.386 28.1423C34.2346 28.4072 33.9823 28.5397 33.629 28.5397H21.2902Z" fill="#5E5CE6"/>
</svg>
